<svg width="566.93" height="566.93" xmlns="http://www.w3.org/2000/svg">

 <g>
  <title>background</title>
  <rect fill="none" id="canvas_background" height="568.93" width="568.93" y="0" x="0"/>
 </g>
 <g>
  <title>Layer 1</title>
  <g stroke="null" id="surface1">
   <path stroke="null" id="svg_1" fill-rule="nonzero" fill="rgb(0%,0%,0%)" d="m389.12008,188.67998c-15.14292,-18.10084 -40.12452,-24.2698 -61.23603,-16.21326c5.31479,3.89646 9.30088,8.9898 11.57865,14.90566c5.9264,-1.29179 12.22717,-0.95962 18.80738,1.23906c12.87571,4.31299 21.31188,13.32914 24.01672,26.82174c3.00012,14.95311 -4.30245,29.54241 -17.90576,36.92405c-14.46276,7.85091 -31.09255,5.45715 -43.33028,-6.41149c-21.60713,-20.95332 -42.83463,-42.31792 -64.80557,-62.88107c-20.78461,-19.45592 -53.88075,-18.54903 -74.28573,1.15997c-19.69845,19.0341 -21.51223,49.86829 -4.15482,70.71618c18.16413,21.81276 50.99137,26.4052 73.7163,9.43795c9.14269,-6.82802 17.38905,-16.00236 24.87087,-23.06236l-13.74041,-13.62441c-6.05822,6.88602 -11.2412,12.8546 -17.68959,18.92864c-10.29212,9.70687 -22.74075,13.00752 -36.40206,8.35181c-12.84406,-4.38153 -21.34878,-13.29751 -23.96926,-26.8481c-2.9843,-15.44873 4.40789,-29.76385 18.63865,-37.22986c14.19912,-7.45019 30.58111,-4.90353 42.63956,6.79111c21.60713,20.95332 42.80299,42.34428 64.81085,62.86527c20.93224,19.51917 53.73839,18.57011 74.27518,-1.1758c19.70901,-18.94974 21.53332,-49.93683 4.16536,-70.69508"/>
   <path stroke="null" id="svg_2" fill-rule="nonzero" fill="rgb(100%,15.686035%,43.136597%)" d="m369.42163,134.86778c2.60995,-1.27597 4.55553,-3.15829 5.49933,-5.5995c2.93157,-7.60837 -4.31299,-19.67737 -17.51033,-22.5773c-10.69811,-2.34631 -20.04644,-1.48159 -26.09938,1.48688c15.83363,5.02478 28.92024,14.59457 38.11038,26.68991"/>
   <path stroke="null" id="svg_3" fill-rule="nonzero" fill="rgb(0%,0%,0%)" d="m260.97469,142.38652l-9.10578,16.80379c0,0 10.10758,17.62631 36.13316,26.93246c26.02558,9.30088 14.15166,-13.41351 14.15166,-13.41351c0,0 -19.10792,-7.46601 -26.59501,-31.89399c-7.48183,-24.42797 -14.58403,1.57125 -14.58403,1.57125"/>
   <path stroke="null" id="svg_4" fill-rule="nonzero" fill="rgb(100%,15.686035%,43.136597%)" d="m264.29644,119.29251c-9.99686,5.28315 -16.65615,15.07966 -16.50853,26.19958c0.06328,4.76643 1.36561,9.25869 3.63283,13.22896l0.45343,0.73816c16.31344,-10.31849 36.13844,-16.49271 57.59266,-16.77742c24.32252,-0.31636 46.74165,6.99674 64.47342,19.44537c-7.72964,-29.99585 -37.94167,-52.14079 -73.74792,-51.67153c-11.62083,0.1529 -22.59311,2.67321 -32.3527,7.03364l-3.54319,1.80323zm0,0"/>
   <path stroke="null" id="svg_5" fill-rule="nonzero" fill="rgb(100%,15.686035%,43.136597%)" d="m309.27175,173.22071c11.5101,2.30413 20.69497,9.69631 23.25218,20.12552c1.09144,4.47117 0.84889,9.00562 -0.50617,13.31333l-0.27945,0.80671c-19.19228,-5.34115 -40.96814,-5.87896 -62.97071,-0.49035c-24.94469,6.11094 -46.09838,18.84956 -61.19912,35.15246c0.61162,-30.05385 26.12048,-58.69991 62.84945,-67.70024c11.92136,-2.92102 23.75308,-3.45883 34.79391,-1.95614l4.0599,0.74871zm0,0"/>
   <path stroke="null" id="svg_6" fill-rule="nonzero" fill="rgb(0%,0%,0%)" d="m466.47447,398.14476l0,-22.9622l-2.12486,1.76632c-4.05992,3.35338 -7.41856,11.47847 -7.41856,14.65785c0,3.8859 1.06508,6.53803 7.0653,6.53803l2.47813,0zm-22.78821,-56.87559l0,-0.35327c2.64685,-4.41845 11.2992,-18.72303 21.54914,-18.72303c7.59255,0 15.36964,7.77183 15.36964,19.25028l0,69.77238c0,1.0598 -0.71181,1.76632 -1.76633,1.76632l-19.43482,0c-13.07078,-0.35327 -16.9567,-7.95108 -16.9567,-19.07628c0,-18.36975 24.02727,-37.62003 24.20126,-37.97857l0,-8.29908c0,-3.35865 -0.53253,-7.41855 -3.8859,-7.41855c-2.65213,0 -5.65223,3.35338 -9.19016,8.47835c-0.34799,0.52727 -0.70653,0.88052 -1.40779,0.88052c-0.70652,0 -7.06528,-4.9457 -7.95108,-6.17949c-0.52727,-0.53253 -0.70653,-0.8858 -0.70653,-1.41306c0,-0.35853 0,-0.53253 0.17927,-0.70652m-16.81433,71.71269c-1.06506,0 -1.7716,-0.70652 -1.7716,-1.76632l0,-84.96275c0,-1.0598 0.70653,-1.7716 1.7716,-1.7716l10.41867,0c1.0598,0 1.94032,0.7118 1.94032,1.7716l0,84.96275c0,1.0598 -0.88052,1.76632 -1.94032,1.76632l-10.41867,0zm-1.7716,-101.21291c0,-0.70653 0.35327,-1.0598 0.70653,-1.41306l10.42394,-5.82622c0.7118,-0.35327 0.8858,-0.35327 1.05979,-0.35327c1.0598,0 1.76633,0.70653 1.94032,1.58705l0,12.54353c0,1.05452 -0.88052,1.76632 -1.94032,1.76632l-10.41867,0c-1.06506,0 -1.7716,-0.7118 -1.7716,-1.76632l0,-6.53803zm-6.35349,99.4466c0,1.0598 -0.8858,1.76632 -1.9456,1.76632l-10.41867,0c-1.05979,0 -1.94032,-0.70652 -1.94032,-1.76632l0,-102.97924c0.174,-0.52725 0.52199,-1.0598 0.88053,-1.23379l10.41867,-5.8315c0.17927,-0.174 0.35327,-0.348 0.52725,-0.348c0.17928,0 0.35327,-0.17927 0.53253,-0.17927c1.0598,0 1.76633,0.70653 1.9456,1.59233l0,108.97946zm-34.62519,-13.07078l0,-22.9622l-2.11432,1.76632c-4.06518,3.35338 -7.42383,11.47847 -7.42383,14.65785c0,3.8859 1.0598,6.53803 7.0653,6.53803l2.47285,0zm-22.78293,-56.87559l0,-0.35327c2.65212,-4.41845 11.30446,-18.72303 21.54913,-18.72303c7.59783,0 15.36964,7.77183 15.36964,19.25028l0,69.77238c0,1.0598 -0.70652,1.76632 -1.76632,1.76632l-19.42955,0c-13.0708,-0.35327 -16.9567,-7.95108 -16.9567,-19.07628c0,-18.36975 24.01672,-37.62003 24.19598,-37.97857l0,-8.29908c0,-3.35865 -0.53253,-7.41855 -3.88064,-7.41855c-2.65212,0 -5.65751,3.35338 -9.19014,8.47835c-0.35327,0.52727 -0.70653,0.88052 -1.41306,0.88052c-0.70653,0 -7.06002,-4.9457 -7.94582,-6.17949c-0.53253,-0.53253 -0.70653,-0.8858 -0.70653,-1.41306c0,-0.35853 0,-0.53253 0.174,-0.70652m-3.61701,59.5277l0,11.1252c0,0.8858 -0.53253,1.58705 -1.23906,1.76632c-1.23379,0.35327 -2.47285,0.35327 -3.17937,0.35327c-10.41867,0 -18.71775,-8.12508 -18.71775,-18.01122l0,-84.26149c0,-0.52727 0.34799,-1.0598 0.70125,-1.41306c0.35327,-0.17399 10.42394,-5.82622 10.42394,-5.82622c0.70652,-0.35327 0.88052,-0.35327 1.23379,-0.35327c0.8858,0 1.59233,0.70653 1.76632,1.58705l0,17.84249l7.0653,0c1.05979,0 1.76632,0.70653 1.76632,1.76632l0,11.30446c0,1.0598 -0.70653,1.94032 -1.76632,1.94032l-7.0653,0l0,56.7016c0,2.11958 2.11958,3.8859 4.59245,3.8859c0.8858,0 1.59232,-0.17927 2.65212,-0.35327c1.05452,0.174 1.76632,0.8858 1.76632,1.9456m-30.20148,10.0654c0,1.23906 -0.8858,2.11958 -2.12486,2.11958l-10.9512,0c-1.23379,0 -2.11431,-0.88052 -2.11431,-2.11958l0,-106.51189c0,-1.05979 0.88052,-2.11431 2.11431,-2.11431l10.9512,0c1.23906,0 2.12486,1.05452 2.12486,2.11431l0,106.51189zm-28.56169,-108.6262l9.18487,0c1.23906,0 1.94032,1.23379 1.40779,2.46757l-8.82634,20.84261c-0.53253,1.23906 -1.9456,2.12486 -3.17938,2.12486l-7.24456,0c-1.23379,0 -1.94032,-1.23906 -1.40777,-2.47813l6.88602,-20.84261c0.53253,-1.05979 1.94032,-2.11431 3.17938,-2.11431m-26.62666,39.38108c0,-1.94032 -2.11958,-3.53265 -4.59771,-3.53265c-2.64684,0 -4.76643,1.59233 -4.76643,3.53265l0,53.52221c0,1.9456 2.1196,3.53265 4.76643,3.53265l4.59771,0l0,-57.05485zm14.2993,69.59838c0,1.0598 -0.70652,1.76632 -1.76104,1.76632l-17.13598,0c-10.59793,0 -18.89702,-7.59781 -18.89702,-17.31523l0,-54.57674c0,-9.71213 8.29908,-17.48395 18.89702,-17.48395c1.59233,0 3.17938,0.174 4.77171,0.52725l0,-15.71763c0,-0.53253 0.35327,-1.05979 0.8858,-1.23906l10.77193,-6.17949c0.34799,-0.174 0.52725,-0.174 0.70653,-0.174c0.88052,0 1.76104,0.70125 1.76104,1.58705l0,108.80548zm-70.50526,-69.94637c0,-1.94032 -2.11958,-3.71191 -4.76643,-3.71191c-2.47285,0 -4.59771,1.7716 -4.59771,3.71191l0,54.57673c0,2.12486 2.12486,3.89118 4.59771,3.89118c2.64685,0 4.76643,-1.76632 4.76643,-3.89118l0,-54.57673zm14.13586,55.28852c0,9.88614 -8.30436,18.0165 -18.90229,18.0165c-10.42394,0 -18.90229,-8.13036 -18.90229,-18.0165l0,-55.82105c0,-9.89141 8.47835,-18.0165 18.90229,-18.0165c10.59793,0 18.90229,8.12508 18.90229,18.0165l0,55.82105zm-40.6307,-71.01143l0,12.53825c0,0.8858 -0.70125,1.59233 -1.58705,1.59233c-10.0654,0.70653 -15.8969,6.53803 -15.8969,13.95658l0,57.58212c0,1.0598 -0.88053,1.76632 -1.94032,1.76632l-10.42394,0c-1.05452,0 -1.94032,-0.70652 -1.94032,-1.76632l0,-85.66928c0.52727,-0.70653 1.23906,-1.06506 1.94032,-1.06506c0.17927,0 0.53253,0 0.88053,0.18454c0.35853,0.17399 9.36415,5.12497 9.36415,5.12497c5.29897,-3.89118 10.59793,-6.01076 17.83722,-6.01076c1.06506,0.17927 1.59233,0.8858 1.76632,1.76632m-51.02826,87.4356c-1.05452,0 -1.76105,-0.70652 -1.76105,-1.76632l0,-84.96275c0,-1.0598 0.70653,-1.7716 1.76105,-1.7716l10.42393,0c1.0598,0 1.9456,0.7118 1.9456,1.7716l0,84.96275c0,1.0598 -0.8858,1.76632 -1.9456,1.76632l-10.42393,0zm-1.76105,-101.21291c0,-0.70653 0.35327,-1.0598 0.70653,-1.41306l10.41867,-5.82622c0.70652,-0.35327 0.88052,-0.35327 1.05979,-0.35327c1.0598,0 1.76633,0.70653 1.9456,1.58705l0,12.54353c0,1.05452 -0.8858,1.76632 -1.9456,1.76632l-10.42393,0c-1.05452,0 -1.76105,-0.7118 -1.76105,-1.76632l0,-6.53803zm-35.15246,12.89679l0,68.88657c0,2.64685 2.82612,4.9457 6.35876,4.9457c3.71191,0 6.53803,-2.29885 6.53803,-4.9457l0,-32.14706l-4.41845,0c-1.0598,0 -1.76632,-0.8858 -1.76632,-1.76633l0,-7.24456c0,-0.88052 0.70652,-1.76632 1.76632,-1.76632l17.84249,0c1.0598,0 1.76632,0.8858 1.76632,1.9456l0,39.56035c0,12.19554 -9.53813,21.90767 -21.7284,21.90767c-12.011,0 -21.72313,-9.71213 -21.72313,-21.90767l0,-63.76161c0,-7.94582 1.23379,-14.83184 4.59243,-19.60881c1.23379,-2.1196 3.53265,-4.05992 5.65223,-5.1197c7.94582,-4.41317 20.48935,-1.40779 32.32106,7.06528c0.70653,0.53253 0.8858,0.88053 0.8858,1.59233c0,0.174 0,0.52725 -0.17927,0.70653l-5.65223,9.0056c-0.34799,0.53253 -0.88052,0.8858 -1.58705,0.8858c-0.53253,0 -0.8858,-0.17927 -1.23906,-0.35327c-6.17949,-4.9457 -12.011,-7.24455 -15.53837,-5.29897c-2.83138,1.58705 -3.89118,3.53265 -3.89118,7.41856"/>
   <path stroke="null" id="svg_7" fill-rule="nonzero" fill="rgb(100%,15.686035%,43.136597%)" d="m107.90043,461.33692l7.3711,0l-9.1427,-24.99742l-8.05126,0l-9.1796,24.99742l7.33947,0l1.38141,-4.18644l8.90016,0l1.38143,4.18644zm-8.54689,-9.43269l2.73121,-8.15144l2.6943,8.15144l-5.42551,0zm39.03309,-15.56473l-5.98968,16.23962l-6.16894,-16.23962l-8.54163,0l0,24.99742l6.98094,0l0,-14.1833l4.64516,14.1833l5.98968,0l4.64517,-14.1833l0,14.1833l6.91238,0l0,-24.99742l-8.47307,0zm24.78124,-0.49563c-2.34103,0 -4.48697,0.55363 -6.44839,1.65033c-1.96668,1.0967 -3.51155,2.63103 -4.64517,4.59243c-1.13888,1.96142 -1.70304,4.17064 -1.70304,6.62767c0,2.45703 0.56416,4.66625 1.70304,6.62767c1.13362,1.9614 2.67849,3.49573 4.64517,4.59243c1.96142,1.10198 4.10736,1.65033 6.44839,1.65033c2.34104,0 4.48699,-0.54835 6.43786,-1.65033c1.94558,-1.0967 3.49045,-2.63103 4.62407,-4.59243c1.1336,-1.96142 1.70305,-4.17064 1.70305,-6.62767c0,-2.45703 -0.56417,-4.66625 -1.68723,-6.62767c-1.12308,-1.9614 -2.65739,-3.49573 -4.60827,-4.59243c-1.94558,-1.0967 -4.10736,-1.65033 -6.46949,-1.65033m0,6.45367c1.7716,0 3.16356,0.57471 4.16536,1.71887c1.00708,1.14942 1.50797,2.71012 1.50797,4.69789c0,1.94032 -0.51145,3.48519 -1.52379,4.64517c-1.0176,1.15997 -2.39903,1.73468 -4.14954,1.73468c-1.7716,0 -3.16883,-0.57471 -4.18117,-1.73468c-1.01762,-1.15998 -1.52379,-2.70485 -1.52379,-4.64517c0,-1.98778 0.50617,-3.54847 1.52379,-4.69789c1.01234,-1.14416 2.40957,-1.71887 4.18117,-1.71887m36.69206,19.03938l-5.70495,-9.74904c1.81904,-0.52199 3.21101,-1.42888 4.18117,-2.71539c0.97016,-1.28652 1.45525,-2.80503 1.45525,-4.55553c0,-1.53433 -0.35854,-2.91576 -1.06508,-4.14428c-0.70652,-1.22851 -1.76632,-2.1934 -3.1741,-2.89466c-1.40779,-0.69598 -3.11084,-1.04397 -5.1197,-1.04397l-11.02502,0l0,25.10286l6.98094,0l0,-9.25342l0.7118,0l5.06698,9.25342l7.69273,0zm-13.47151,-19.21864l3.43773,0c0.97016,0 1.69779,0.23727 2.18286,0.7118c0.48509,0.46927 0.72762,1.12308 0.72762,1.95087c0,1.74523 -0.97016,2.62048 -2.91048,2.62048l-3.43773,0l0,-5.28315zm32.68487,-0.31635l0,-5.56787l-16.1658,0l0,25.10286l16.1658,0l0,-5.56787l-9.1796,0l0,-4.53971l8.11982,0l0,-5.27788l-8.11982,0l0,-4.14953l9.1796,0zm10.46085,19.53499l6.9862,0l0,-25.10286l-6.9862,0l0,25.10286zm34.38794,-25.06596l-6.98094,0l0,14.1833l-9.22178,-14.1833l-6.98094,0l0,25.06596l6.98094,0l0,-14.00404l9.22178,14.00404l6.98094,0l0,-25.06596zm4.21808,-0.0369l0,25.10286l6.9862,0l0,-9.82286l7.51345,0l0,-5.24624l-7.51345,0l0,-4.46589l10.0654,0l0,-5.56787l-17.0516,0zm20.27843,25.10286l6.9862,0l0,-25.10286l-6.9862,0l0,25.10286zm34.38794,-25.06596l-6.98094,0l0,14.1833l-9.22178,-14.1833l-6.98094,0l0,25.06596l6.98094,0l0,-14.00404l9.22178,14.00404l6.98094,0l0,-25.06596zm4.21808,25.06596l6.9862,0l0,-25.10286l-6.9862,0l0,25.10286zm9.6805,-25.10286l0,5.56787l6.70148,0l0,19.53499l6.9493,0l0,-19.53499l6.77003,0l0,-5.56787l-20.4208,0zm35.16828,-0.39018c-2.34104,0 -4.49227,0.55363 -6.45367,1.65033c-1.96142,1.0967 -3.51155,2.63103 -4.64517,4.59243c-1.1336,1.96142 -1.69778,4.17064 -1.69778,6.62767c0,2.45703 0.56417,4.66625 1.69778,6.62767c1.13362,1.9614 2.68375,3.49573 4.64517,4.59243c1.9614,1.10198 4.11262,1.65033 6.45367,1.65033c2.34103,0 4.48171,-0.54835 6.43257,-1.65033c1.95087,-1.0967 3.49575,-2.63103 4.62935,-4.59243c1.1336,-1.96142 1.69778,-4.17064 1.69778,-6.62767c0,-2.45703 -0.55889,-4.66625 -1.68196,-6.62767c-1.12306,-1.9614 -2.65739,-3.49573 -4.60825,-4.59243c-1.95087,-1.0967 -4.10736,-1.65033 -6.46949,-1.65033m0,6.45367c1.7716,0 3.15829,0.57471 4.16536,1.71887c1.00178,1.14942 1.50795,2.71012 1.50795,4.69789c0,1.94032 -0.51143,3.48519 -1.52905,4.64517c-1.01234,1.15997 -2.39903,1.73468 -4.14426,1.73468c-1.7716,0 -3.16884,-0.57471 -4.18644,-1.73468c-1.01234,-1.15998 -1.52379,-2.70485 -1.52379,-4.64517c0,-1.98778 0.51145,-3.54847 1.52379,-4.69789c1.0176,-1.14416 2.41485,-1.71887 4.18644,-1.71887m22.33475,13.50842l0,5.20933l18.11668,0l0,-5.63641l-9.00562,0c2.43067,-1.51323 4.48172,-3.34283 6.14786,-5.49405c1.66615,-2.15122 2.49921,-4.39736 2.49921,-6.73839c0,-2.17232 -0.68544,-3.97028 -2.05631,-5.38861c-1.37088,-1.41833 -3.4852,-2.12486 -6.34295,-2.12486c-2.62577,0 -4.81389,0.77507 -6.55913,2.31995c-1.7505,1.55015 -2.6943,3.89646 -2.83666,7.03894l6.77002,0c0.02637,-1.25488 0.1951,-2.15122 0.51673,-2.69431c0.31635,-0.54307 0.83306,-0.81726 1.53959,-0.81726c1.25488,0 1.88232,0.78035 1.88232,2.34104c0,1.60815 -0.97016,3.41137 -2.91048,5.40969c-1.93504,1.99304 -4.52389,4.18644 -7.76127,6.57495m20.63171,-7.30256c0,-3.90173 0.83307,-6.99148 2.49921,-9.27451c1.66615,-2.27777 4.26026,-3.42193 7.78237,-3.42193c3.52209,0 6.12149,1.14942 7.79818,3.44301c1.67669,2.29358 2.52031,5.37806 2.52031,9.25342c0,3.89646 -0.84362,6.99148 -2.52031,9.28506c-1.67669,2.29357 -4.27608,3.43773 -7.79818,3.43773c-3.52211,0 -6.11622,-1.14416 -7.78237,-3.43773c-1.66614,-2.29358 -2.49921,-5.38861 -2.49921,-9.28506m13.71931,0c0,-1.94032 -0.23199,-3.44301 -0.69071,-4.50281c-0.45871,-1.06506 -1.37615,-1.59759 -2.74702,-1.59759c-1.37088,0 -2.28832,0.53253 -2.74703,1.59759c-0.46399,1.0598 -0.69071,2.56249 -0.69071,4.50281c0,1.9614 0.22672,3.47465 0.69071,4.53443c0.45871,1.06508 1.37615,1.59761 2.74703,1.59761c1.37087,0 2.28831,-0.53253 2.74702,-1.59761c0.45873,-1.05979 0.69071,-2.57303 0.69071,-4.53443m9.56979,7.30256l0,5.20933l18.11666,0l0,-5.63641l-9.0056,0c2.43593,-1.51323 4.48697,-3.34283 6.15312,-5.49405c1.66614,-2.15122 2.49921,-4.39736 2.49921,-6.73839c0,-2.17232 -0.68544,-3.97028 -2.05632,-5.38861c-1.37087,-1.41833 -3.48519,-2.12486 -6.34293,-2.12486c-2.62577,0 -4.81389,0.77507 -6.55913,2.31995c-1.7505,1.55015 -2.6943,3.89646 -2.83666,7.03894l6.77002,0c0.02636,-1.25488 0.19508,-2.15122 0.51145,-2.69431c0.32163,-0.54307 0.83307,-0.81726 1.54487,-0.81726c1.25488,0 1.87705,0.78035 1.87705,2.34104c0,1.60815 -0.9649,3.41137 -2.90521,5.40969c-1.94032,1.99304 -4.52389,4.18644 -7.76654,6.57495m20.63697,-7.30256c0,-3.90173 0.83307,-6.99148 2.49921,-9.27451c1.66615,-2.27777 4.26026,-3.42193 7.78237,-3.42193c3.52209,0 6.12149,1.14942 7.79818,3.44301c1.67669,2.29358 2.51503,5.37806 2.51503,9.25342c0,3.89646 -0.83834,6.99148 -2.51503,9.28506c-1.67669,2.29357 -4.27608,3.43773 -7.79818,3.43773c-3.52211,0 -6.11622,-1.14416 -7.78237,-3.43773c-1.66614,-2.29358 -2.49921,-5.38861 -2.49921,-9.28506m13.71931,0c0,-1.94032 -0.23199,-3.44301 -0.69071,-4.50281c-0.46399,-1.06506 -1.38143,-1.59759 -2.74702,-1.59759c-1.37088,0 -2.28832,0.53253 -2.75231,1.59759c-0.45871,1.0598 -0.69071,2.56249 -0.69071,4.50281c0,1.9614 0.232,3.47465 0.69071,4.53443c0.46399,1.06508 1.38143,1.59761 2.75231,1.59761c1.36559,0 2.28303,-0.53253 2.74702,-1.59761c0.45873,-1.05979 0.69071,-2.57303 0.69071,-4.53443"/>
  </g>
 </g>
</svg>